<svg width="690" height="690" viewBox="0 0 690 690" fill="none" xmlns="http://www.w3.org/2000/svg">
<path d="M345 680C530.015 680 680 530.015 680 345C680 159.985 530.015 10 345 10C159.985 10 10 159.985 10 345C10 530.015 159.985 680 345 680Z" fill="url(#paint0_radial_12_83)" stroke="#866FBF" stroke-width="20"/>
<path opacity="0.4" d="M128.539 113.077L566.615 113.077" stroke="#818CF8" stroke-width="7"/>
<path opacity="0.4" d="M110.5 211H579.5" stroke="#818CF8" stroke-width="7"/>
<path opacity="0.4" d="M43.5 311.5H646.5" stroke="#818CF8" stroke-width="7"/>
<path opacity="0.4" d="M110.5 412H579.5" stroke="#818CF8" stroke-width="7"/>
<path opacity="0.4" d="M64.3066 512.5L625.693 512.5" stroke="#818CF8" stroke-width="7"/>
<circle cx="345.5" cy="347.5" r="326.5" fill="url(#paint1_linear_12_83)" fill-opacity="0.25" style="mix-blend-mode:plus-lighter"/>
<path d="M345 499.616C430.392 499.616 499.616 430.392 499.616 345C499.616 259.608 430.392 190.385 345 190.385C259.608 190.385 190.385 259.608 190.385 345C190.385 430.392 259.608 499.616 345 499.616Z" fill="url(#paint2_linear_12_83)"/>
<path opacity="0.8" d="M499.616 334.692H190.385V360.462H499.616V334.692Z" fill="url(#paint3_linear_12_83)"/>
<path d="M283.154 347.577C318.734 347.577 347.577 318.734 347.577 283.154C347.577 247.574 318.734 218.731 283.154 218.731C247.574 218.731 218.731 247.574 218.731 283.154C218.731 318.734 247.574 347.577 283.154 347.577Z" fill="white" fill-opacity="0.95"/>
<path d="M345 667.115C522.9 667.115 667.116 522.899 667.116 345C667.116 167.1 522.9 22.8845 345 22.8845C167.101 22.8845 22.8848 167.1 22.8848 345C22.8848 522.899 167.101 667.115 345 667.115Z" stroke="white" stroke-opacity="0.1"/>
<path d="M345 615.577C494.435 615.577 615.577 494.435 615.577 345C615.577 195.564 494.435 74.4231 345 74.4231C195.564 74.4231 74.4229 195.564 74.4229 345C74.4229 494.435 195.564 615.577 345 615.577Z" stroke="white" stroke-opacity="0.05" stroke-width="6"/>
<path d="M345 564.038C465.971 564.038 564.038 465.971 564.038 345C564.038 224.028 465.971 125.961 345 125.961C224.028 125.961 125.961 224.028 125.961 345C125.961 465.971 224.028 564.038 345 564.038Z" stroke="white" stroke-opacity="0.02" stroke-width="6"/>
<defs>
<radialGradient id="paint0_radial_12_83" cx="0" cy="0" r="1" gradientUnits="userSpaceOnUse" gradientTransform="translate(345 345) scale(335)">
<stop stop-color="#9333EA"/>
<stop offset="0.6" stop-color="#7C3AED"/>
<stop offset="1" stop-color="#6D28D9"/>
</radialGradient>
<linearGradient id="paint1_linear_12_83" x1="345.5" y1="21" x2="345.5" y2="674" gradientUnits="userSpaceOnUse">
<stop stop-color="white" stop-opacity="0"/>
<stop offset="0.1" stop-color="white" stop-opacity="0"/>
<stop offset="1" stop-color="white" stop-opacity="0.7"/>
</linearGradient>
<linearGradient id="paint2_linear_12_83" x1="270" y1="211" x2="443" y2="475" gradientUnits="userSpaceOnUse">
<stop offset="0.5" stop-color="#DFE8FF"/>
<stop offset="1" stop-color="#DFE8FF"/>
</linearGradient>
<linearGradient id="paint3_linear_12_83" x1="190.385" y1="334.692" x2="499.616" y2="334.692" gradientUnits="userSpaceOnUse">
<stop stop-color="#E0E7FF"/>
<stop offset="0.5" stop-color="white" stop-opacity="0.8"/>
<stop offset="1" stop-color="#E0E7FF" stop-opacity="0"/>
</linearGradient>
</defs>
</svg>
